<svg width="20" height="20" viewBox="0 0 20 20" fill="none" xmlns="http://www.w3.org/2000/svg">
<path d="M6.79967 5.54163H13.1913C13.7247 5.54163 14.158 5.97496 14.158 6.50829V7.57496C14.158 7.96663 13.9163 8.44996 13.6747 8.69163L11.5913 10.5333C11.2997 10.775 11.108 11.2583 11.108 11.65V13.7333C11.108 14.025 10.9163 14.4083 10.6747 14.5583L9.99967 14.9833C9.36634 15.375 8.49967 14.9333 8.49967 14.1583V11.5916C8.49967 11.25 8.30801 10.8166 8.10801 10.575L6.26634 8.63329C6.02467 8.39996 5.83301 7.95829 5.83301 7.66663V6.55829C5.83301 5.97496 6.26634 5.54163 6.79967 5.54163Z" stroke="#717272" stroke-width="1.5" stroke-miterlimit="10" stroke-linecap="round" stroke-linejoin="round"/>
<path d="M7.50033 18.3333H12.5003C16.667 18.3333 18.3337 16.6666 18.3337 12.5V7.49996C18.3337 3.33329 16.667 1.66663 12.5003 1.66663H7.50033C3.33366 1.66663 1.66699 3.33329 1.66699 7.49996V12.5C1.66699 16.6666 3.33366 18.3333 7.50033 18.3333Z" stroke="#717272" stroke-width="1.5" stroke-linecap="round" stroke-linejoin="round"/>
</svg>
