<svg width="190" height="191" viewBox="0 0 190 191" fill="none" xmlns="http://www.w3.org/2000/svg">
<g clip-path="url(#clip0_397_2026)">
<path opacity="0.2" fill-rule="evenodd" clip-rule="evenodd" d="M98.6538 190.5C149.106 190.5 190 149.606 190 99.1538C190 48.7015 149.106 7.80762 98.6538 7.80762C48.2015 7.80762 7.30762 48.7015 7.30762 99.1538C7.30762 149.606 48.2015 190.5 98.6538 190.5ZM98.6538 175.885C141.031 175.885 175.385 141.531 175.385 99.1538C175.385 56.7765 141.031 22.423 98.6538 22.423C56.2765 22.423 21.923 56.7765 21.923 99.1538C21.923 141.531 56.2765 175.885 98.6538 175.885Z" fill="#0C3F25"/>
<g opacity="0.2">
<path fill-rule="evenodd" clip-rule="evenodd" d="M120.877 74.505C121.716 74.9707 122.455 75.5973 123.053 76.3489C123.65 77.1005 124.093 77.9624 124.357 78.8853C124.621 79.8082 124.7 80.7741 124.591 81.7278C124.482 82.6815 124.185 83.6043 123.719 84.4435L103.419 120.982C102.477 122.676 100.9 123.926 99.0365 124.458C97.1727 124.99 95.174 124.759 93.4801 123.817C91.7861 122.875 90.5358 121.299 90.004 119.435C89.4723 117.571 89.7028 115.573 90.6447 113.879L110.938 77.3404C111.405 76.5016 112.032 75.7629 112.783 75.1665C113.535 74.57 114.397 74.1275 115.32 73.8643C116.243 73.601 117.209 73.522 118.162 73.632C119.115 73.7419 120.038 74.0386 120.877 74.505Z" fill="#0C3F25"/>
<path fill-rule="evenodd" clip-rule="evenodd" d="M71.0307 96.6254C72.2416 95.1133 74.0032 94.1439 75.9284 93.9302C77.8537 93.7164 79.785 94.2758 81.2981 95.4854L101.599 111.723C102.348 112.323 102.972 113.064 103.435 113.905C103.898 114.746 104.191 115.67 104.297 116.624C104.403 117.578 104.32 118.544 104.052 119.466C103.785 120.388 103.339 121.248 102.739 121.998C102.139 122.747 101.398 123.371 100.557 123.834C99.7156 124.297 98.7917 124.59 97.8376 124.696C96.8835 124.801 95.9179 124.718 94.996 124.451C94.074 124.184 93.2137 123.737 92.4642 123.138L72.1634 106.893C70.6514 105.682 69.682 103.92 69.4682 101.995C69.2545 100.07 69.8139 98.1384 71.0234 96.6254" fill="#0C3F25"/>
<path fill-rule="evenodd" clip-rule="evenodd" d="M105.742 56.7108C104.839 55.8138 103.617 55.3104 102.344 55.3104C101.071 55.3104 99.8496 55.8138 98.9462 56.7108C92.3181 63.3316 81.7073 67.4092 72.3754 66.9416C71.7022 66.9015 71.0281 67.0052 70.3981 67.2459C69.7681 67.4866 69.1966 67.8586 68.7216 68.3373C68.262 68.7932 67.9005 69.3383 67.6592 69.9389C67.4179 70.5396 67.302 71.1833 67.3185 71.8304C67.4208 77.0919 66.0981 82.3462 64.3589 86.665C62.6196 90.9912 59.9304 95.69 56.2108 99.4169C55.3138 100.32 54.8104 101.542 54.8104 102.815C54.8104 104.088 55.3138 105.31 56.2108 106.213C62.7366 112.746 67.1285 123.028 67.3185 132.272C67.3381 133.512 67.8417 134.695 68.7216 135.568C69.5605 136.415 70.6874 136.916 71.8785 136.971C77.0304 137.227 82.1531 138.747 86.4427 140.647C90.7396 142.554 95.2996 145.331 98.9389 148.978C99.8423 149.875 101.064 150.378 102.337 150.378C103.61 150.378 104.832 149.875 105.735 148.978C109.382 145.331 113.942 142.554 118.231 140.647C122.528 138.747 127.658 137.227 132.795 136.971C133.987 136.916 135.113 136.415 135.952 135.568C136.835 134.696 137.341 133.513 137.363 132.272C137.553 123.028 141.945 112.746 148.47 106.213C149.367 105.31 149.871 104.088 149.871 102.815C149.871 101.542 149.367 100.32 148.47 99.4169C144.743 95.69 142.062 90.9912 140.322 86.665C138.583 82.3462 137.253 77.0919 137.363 71.8304C137.378 71.1828 137.261 70.5388 137.019 69.9381C136.776 69.3374 136.413 68.7926 135.952 68.3373C135.479 67.8583 134.909 67.4854 134.28 67.2435C133.651 67.0016 132.978 66.8962 132.306 66.9342C122.967 67.4092 112.356 63.3316 105.742 56.7108ZM52.7104 72.1154C52.82 77.6619 49.8019 85.1596 45.8777 89.0766C42.2363 92.7214 40.1909 97.6628 40.1909 102.815C40.1909 107.967 42.2363 112.909 45.8777 116.553C49.7508 120.412 52.6008 127.106 52.7104 132.572C52.8127 137.41 54.7054 142.218 58.3958 145.901C61.8005 149.313 66.3552 151.332 71.1696 151.565C76.95 151.857 84.5208 155.218 88.6131 159.311C92.2577 162.95 97.1975 164.994 102.348 164.994C107.498 164.994 112.438 162.95 116.083 159.311C120.175 155.218 127.746 151.857 133.526 151.565C138.341 151.332 142.895 149.313 146.3 145.901C149.846 142.36 151.881 137.582 151.978 132.572C152.095 127.106 154.945 120.412 158.811 116.546C162.45 112.902 164.494 107.962 164.494 102.811C164.494 97.661 162.45 92.7211 158.811 89.0766C154.894 85.1596 151.868 77.6619 151.985 72.1227C152.04 69.5074 151.565 66.908 150.588 64.4815C149.611 62.055 148.152 59.8516 146.3 58.0042C144.381 56.0797 142.077 54.5808 139.54 53.605C137.003 52.6293 134.289 52.1985 131.575 52.3408C126.365 52.6039 119.773 50.0754 116.083 46.3777C112.438 42.7363 107.496 40.6909 102.344 40.6909C97.1921 40.6909 92.2507 42.7363 88.6058 46.3777C84.9227 50.0681 78.3312 52.6039 73.1135 52.3408C70.4003 52.1996 67.6877 52.6308 65.152 53.6065C62.6164 54.5823 60.3144 56.0806 58.3958 58.0042C56.5446 59.8507 55.0865 62.0529 54.1094 64.4781C53.1322 66.9033 52.6564 69.5013 52.7104 72.1154Z" fill="#0C3F25"/>
</g>
<path fill-rule="evenodd" clip-rule="evenodd" d="M111.793 70.3907C112.212 70.6239 112.582 70.9374 112.88 71.3134C113.178 71.6893 113.399 72.1203 113.531 72.5817C113.663 73.0432 113.702 73.526 113.647 74.0027C113.592 74.4794 113.444 74.9406 113.211 75.36L92.9173 111.898C92.6841 112.318 92.3705 112.687 91.9946 112.985C91.6187 113.284 91.1877 113.505 90.7263 113.636C90.2648 113.768 89.782 113.808 89.3053 113.753C88.8286 113.698 88.3674 113.549 87.948 113.316C87.5287 113.083 87.1593 112.769 86.8611 112.393C86.5629 112.018 86.3417 111.587 86.21 111.125C86.0784 110.664 86.0389 110.181 86.0939 109.704C86.1488 109.227 86.2971 108.766 86.5303 108.347L106.824 71.8084C107.057 71.3891 107.37 71.0197 107.746 70.7215C108.122 70.4233 108.553 70.202 109.015 70.0704C109.476 69.9387 109.959 69.8993 110.436 69.9542C110.912 70.0092 111.374 70.1575 111.793 70.3907Z" fill="#0C3F25"/>
<path fill-rule="evenodd" clip-rule="evenodd" d="M66.5729 91.5976C67.1783 90.8427 68.0583 90.3587 69.0201 90.2519C69.9818 90.145 70.9467 90.424 71.7029 91.0276L92.0037 107.265C92.7605 107.871 93.2458 108.753 93.3527 109.716C93.4596 110.679 93.1794 111.646 92.5737 112.403C91.968 113.159 91.0865 113.645 90.1231 113.752C89.1597 113.859 88.1932 113.578 87.4364 112.973L67.1429 96.7423C66.7681 96.4424 66.456 96.0717 66.2244 95.6512C65.9929 95.2308 65.8465 94.7688 65.7935 94.2917C65.7406 93.8146 65.7822 93.3318 65.9159 92.8708C66.0497 92.4098 66.2729 91.9796 66.5729 91.6049" fill="#0C3F25"/>
<path fill-rule="evenodd" clip-rule="evenodd" d="M52.6007 52.2165C51.4449 53.3682 50.5348 54.7424 49.9256 56.256C49.3164 57.7696 49.0207 59.3911 49.0564 61.0223C49.1295 65.0415 48.1064 69.2946 46.623 72.9777C45.1395 76.6681 42.9253 80.4461 40.0899 83.2888C37.8207 85.563 36.5463 88.6445 36.5463 91.8571C36.5463 95.0697 37.8207 98.1512 40.0899 100.425C45.2784 105.621 48.903 114.113 49.0564 121.464C49.1072 124.533 50.3261 127.466 52.4646 129.667C54.6031 131.868 57.5004 133.171 60.5661 133.31C64.5853 133.507 68.8164 134.728 72.5287 136.379C76.2337 138.016 79.9753 140.34 82.818 143.183C85.0922 145.452 88.1736 146.726 91.3862 146.726C94.5989 146.726 97.6803 145.452 99.9545 143.183C102.797 140.34 106.531 138.023 110.244 136.372C113.956 134.728 118.187 133.507 122.206 133.31C125.27 133.166 128.165 131.861 130.302 129.662C132.44 127.462 133.66 124.531 133.716 121.464C133.862 114.113 137.487 105.621 142.683 100.418C144.95 98.1442 146.223 95.0643 146.223 91.8535C146.223 88.6426 144.95 85.5627 142.683 83.2888C139.84 80.4461 137.633 76.6681 136.15 72.985C134.659 69.2946 133.636 65.0342 133.716 61.0223C133.751 59.3906 133.454 57.7687 132.844 56.2551C132.233 54.7415 131.322 53.3675 130.165 52.2165C128.969 51.015 127.534 50.079 125.952 49.4696C124.371 48.8601 122.679 48.591 120.986 48.6796C113.708 49.045 105.106 45.7419 99.9545 40.59C97.6803 38.3208 94.5989 37.0464 91.3862 37.0464C88.1736 37.0464 85.0922 38.3208 82.818 40.59C77.6661 45.7419 69.0649 49.045 61.7864 48.6796C60.0927 48.5899 58.3991 48.8586 56.8162 49.4681C55.2334 50.0775 53.7969 51.0141 52.6007 52.2165ZM41.7487 61.1538C41.8584 66.6931 38.8403 74.1981 34.916 78.115C31.2769 81.7596 29.2329 86.6994 29.2329 91.8498C29.2329 97.0002 31.2769 101.94 34.916 105.585C38.7891 109.45 41.6391 116.144 41.7487 121.603C41.851 126.441 43.7437 131.249 47.4341 134.94C50.8389 138.351 55.3936 140.371 60.208 140.603C65.9884 140.895 73.5591 144.25 77.6514 148.349C81.296 151.988 86.2359 154.032 91.3862 154.032C96.5366 154.032 101.476 151.988 105.121 148.349C109.213 144.25 116.784 140.895 122.565 140.603C127.379 140.371 131.934 138.351 135.338 134.94C138.886 131.397 140.922 126.616 141.016 121.603C141.133 116.144 143.983 109.45 147.849 105.585C151.488 101.94 153.532 97.0002 153.532 91.8498C153.532 86.6994 151.488 81.7596 147.849 78.115C143.932 74.1981 140.907 66.6931 141.024 61.1611C141.08 58.5446 140.605 55.9439 139.628 53.516C138.651 51.0882 137.191 48.8836 135.338 47.0354C133.419 45.1108 131.116 43.6119 128.579 42.6362C126.042 41.6604 123.328 41.2296 120.613 41.3719C115.403 41.635 108.811 39.1065 105.121 35.4088C101.476 31.7675 96.5348 29.722 91.3826 29.722C86.2304 29.722 81.289 31.7675 77.6441 35.4088C73.9611 39.1065 67.3695 41.635 62.1518 41.3719C59.4386 41.2307 56.726 41.6619 54.1904 42.6377C51.6547 43.6134 49.3528 45.1118 47.4341 47.0354C45.582 48.8827 44.1234 51.0861 43.1463 53.5126C42.1691 55.9392 41.6937 58.5385 41.7487 61.1538Z" fill="#0C3F25"/>
<path fill-rule="evenodd" clip-rule="evenodd" d="M95 179.538C141.411 179.538 179.038 141.911 179.038 95.5C179.038 49.0888 141.411 11.4615 95 11.4615C48.5888 11.4615 10.9615 49.0888 10.9615 95.5C10.9615 141.911 48.5888 179.538 95 179.538ZM95 186.846C145.452 186.846 186.346 145.952 186.346 95.5C186.346 45.0477 145.452 4.15381 95 4.15381C44.5477 4.15381 3.65381 45.0477 3.65381 95.5C3.65381 145.952 44.5477 186.846 95 186.846Z" fill="#0C3F25"/>
</g>
<defs>
<clipPath id="clip0_397_2026">
<rect width="190" height="190" fill="white" transform="translate(0 0.5)"/>
</clipPath>
</defs>
</svg>
